<?xml version="1.0" encoding="utf-8"?>
<!-- Generator: Adobe Illustrator 16.0.0, SVG Export Plug-In . SVG Version: 6.00 Build 0)  -->
<!DOCTYPE svg PUBLIC "-//W3C//DTD SVG 1.1//EN" "http://www.w3.org/Graphics/SVG/1.1/DTD/svg11.dtd">
<svg version="1.1" id="Ebene_2" xmlns="http://www.w3.org/2000/svg" xmlns:xlink="http://www.w3.org/1999/xlink" x="0px" y="0px"
	 width="394px" height="102px" viewBox="0 0 394 102" enable-background="new 0 0 394 102" xml:space="preserve">
<g>
	<path fill="#FFFFFF" d="M171.908,52.817h-21.302c-0.549,0-0.995,0.445-0.995,0.996v10.414c0,0.55,0.446,0.996,0.995,0.996h8.309
		v12.938c0,0-1.865,0.637-7.023,0.637c-6.086,0-14.587-2.224-14.587-20.918c0-18.698,8.853-21.159,17.163-21.159
		c7.194,0,10.293,1.267,12.266,1.877c0.62,0.189,1.193-0.427,1.193-0.978l2.375-10.062c0-0.258-0.086-0.568-0.38-0.778
		c-0.801-0.572-5.687-3.306-18.03-3.306c-14.221,0-28.807,6.05-28.807,35.132c0,29.084,16.7,33.418,30.774,33.418
		c11.652,0,18.721-4.979,18.721-4.979c0.291-0.16,0.322-0.567,0.322-0.754v-32.48C172.902,53.262,172.457,52.817,171.908,52.817z"/>
	<path fill="#FFFFFF" d="M281.682,26.961c0-0.554-0.438-1.001-0.988-1.001h-11.994c-0.547,0-0.992,0.447-0.992,1.001
		c0,0.002,0.004,23.177,0.004,23.177h-18.696V26.961c0-0.554-0.44-1.001-0.988-1.001h-11.994c-0.546,0-0.99,0.447-0.99,1.001v62.76
		c0,0.553,0.444,1.004,0.99,1.004h11.994c0.548,0,0.988-0.451,0.988-1.004V62.877h18.696c0,0-0.034,26.842-0.034,26.844
		c0,0.553,0.445,1.004,0.994,1.004h12.022c0.549,0,0.987-0.451,0.988-1.004V26.961z"/>
	<g>
		<g>
			<path fill="#FFFFFF" d="M194.54,35.197c0-4.319-3.462-7.809-7.734-7.809c-4.267,0-7.732,3.489-7.732,7.809
				c0,4.313,3.466,7.813,7.732,7.813C191.078,43.01,194.54,39.51,194.54,35.197z"/>
			<path fill="#FFFFFF" d="M193.683,76.481c0-1.608,0-28.97,0-28.97c0-0.549-0.444-0.999-0.993-0.999h-11.956
				c-0.548,0-1.039,0.565-1.039,1.115c0,0,0,34.861,0,41.505c0,1.22,0.761,1.582,1.744,1.582c0,0,5.103,0,10.772,0
				c1.182,0,1.472-0.58,1.472-1.601C193.683,86.888,193.683,78.174,193.683,76.481z"/>
		</g>
	</g>
	<path fill="#FFFFFF" d="M327.264,46.606h-11.901c-0.547,0-0.99,0.45-0.99,1.004v30.772c0,0-3.025,2.213-7.315,2.213
		c-4.292,0-5.431-1.948-5.431-6.149c0-4.207,0-26.836,0-26.836c0-0.554-0.443-1.004-0.99-1.004h-12.078
		c-0.546,0-0.991,0.45-0.991,1.004c0,0,0,16.388,0,28.867c0,12.481,6.955,15.535,16.524,15.535c7.851,0,14.181-4.338,14.181-4.338
		s0.302,2.285,0.438,2.557c0.137,0.271,0.491,0.544,0.876,0.544l7.684-0.034c0.546,0,0.992-0.451,0.992-1.001l-0.004-42.13
		C328.257,47.056,327.812,46.606,327.264,46.606z"/>
	<path fill="#FFFFFF" d="M359.792,45.196c-6.759,0-11.356,3.017-11.356,3.017V26.961c0-0.554-0.444-1.001-0.99-1.001h-12.027
		c-0.547,0-0.992,0.447-0.992,1.001v62.76c0,0.553,0.445,1.004,0.993,1.004c0.001,0,8.342,0,8.345,0c0.376,0,0.66-0.194,0.871-0.533
		c0.208-0.336,0.506-2.894,0.506-2.894s4.919,4.66,14.229,4.66c10.931,0,17.199-5.544,17.199-24.889
		C376.568,47.724,366.557,45.196,359.792,45.196z M355.099,80.557c-4.129-0.125-6.929-1.999-6.929-1.999V58.684
		c0,0,2.762-1.694,6.151-1.996c4.286-0.384,8.416,0.91,8.416,11.134C362.737,78.604,360.873,80.73,355.099,80.557z"/>
	<path fill="#FFFFFF" d="M228.152,46.507h-8.997c0,0-0.014-11.884-0.014-11.887c0-0.45-0.231-0.674-0.752-0.674h-12.259
		c-0.478,0-0.733,0.21-0.733,0.668v12.282c0,0-6.144,1.484-6.56,1.604c-0.412,0.12-0.718,0.501-0.718,0.956v7.719
		c0,0.555,0.443,1.002,0.992,1.002h6.285c0,0,0,8.072,0,18.568c0,13.792,9.675,15.146,16.202,15.146
		c2.982,0,6.551-0.958,7.141-1.176c0.355-0.13,0.563-0.499,0.563-0.9l0.01-8.489c0-0.553-0.468-1.002-0.994-1.002
		c-0.525,0-1.866,0.214-3.246,0.214c-4.42,0-5.917-2.055-5.917-4.715c0-2.657,0-17.646,0-17.646h8.997
		c0.549,0,0.992-0.447,0.992-1.002v-9.668C229.145,46.952,228.701,46.507,228.152,46.507z"/>
</g>
<g>
	<path fill-rule="evenodd" clip-rule="evenodd" fill="#FFFFFF" d="M61.59,13.541c-25.074,0-45.407,20.328-45.407,45.406
		c0,20.063,13.011,37.082,31.052,43.087c2.269,0.42,3.102-0.985,3.102-2.185c0-1.082-0.042-4.66-0.062-8.454
		c-12.632,2.747-15.297-5.357-15.297-5.357c-2.065-5.248-5.042-6.644-5.042-6.644c-4.121-2.818,0.311-2.761,0.311-2.761
		c4.559,0.32,6.96,4.68,6.96,4.68c4.05,6.941,10.622,4.936,13.214,3.774c0.407-2.935,1.584-4.938,2.882-6.071
		c-10.085-1.148-20.688-5.042-20.688-22.441c0-4.957,1.774-9.008,4.679-12.188c-0.472-1.144-2.026-5.762,0.44-12.017
		c0,0,3.813-1.22,12.489,4.655c3.623-1.006,7.507-1.511,11.366-1.528c3.858,0.018,7.745,0.522,11.375,1.528
		c8.667-5.875,12.474-4.655,12.474-4.655c2.471,6.254,0.918,10.873,0.446,12.017c2.911,3.18,4.673,7.231,4.673,12.188
		c0,17.44-10.623,21.281-20.733,22.405c1.628,1.409,3.08,4.172,3.08,8.408c0,6.075-0.053,10.965-0.053,12.461
		c0,1.209,0.818,2.624,3.119,2.179c18.032-6.011,31.025-23.025,31.025-43.081C106.996,33.869,86.667,13.541,61.59,13.541z"/>
	<path fill="#FFFFFF" d="M33.381,78.734c-0.1,0.227-0.456,0.294-0.778,0.139c-0.33-0.147-0.514-0.455-0.408-0.682
		c0.098-0.232,0.453-0.297,0.782-0.143C33.307,78.198,33.495,78.509,33.381,78.734L33.381,78.734z M32.822,78.32"/>
	<path fill="#FFFFFF" d="M35.221,80.786c-0.217,0.201-0.641,0.107-0.927-0.21c-0.298-0.316-0.353-0.74-0.133-0.943
		c0.223-0.2,0.634-0.106,0.931,0.211C35.389,80.163,35.447,80.583,35.221,80.786L35.221,80.786z M34.787,80.321"/>
	<path fill="#FFFFFF" d="M37.011,83.401c-0.278,0.193-0.734,0.013-1.015-0.392c-0.278-0.403-0.278-0.888,0.007-1.082
		c0.281-0.194,0.729-0.02,1.015,0.381C37.295,82.719,37.295,83.204,37.011,83.401L37.011,83.401z M37.011,83.401"/>
	<path fill="#FFFFFF" d="M39.463,85.928c-0.25,0.275-0.779,0.2-1.167-0.174c-0.397-0.366-0.507-0.885-0.258-1.16
		c0.252-0.274,0.786-0.197,1.176,0.174C39.609,85.133,39.729,85.657,39.463,85.928L39.463,85.928z M39.463,85.928"/>
	<path fill="#FFFFFF" d="M42.847,87.396c-0.11,0.355-0.621,0.517-1.134,0.365c-0.515-0.156-0.85-0.572-0.747-0.931
		c0.107-0.358,0.62-0.527,1.138-0.365C42.617,86.619,42.953,87.033,42.847,87.396L42.847,87.396z M42.847,87.396"/>
	<path fill="#FFFFFF" d="M46.563,87.666c0.013,0.376-0.423,0.686-0.963,0.692c-0.542,0.013-0.983-0.291-0.989-0.659
		c0-0.379,0.427-0.686,0.97-0.695C46.12,86.994,46.563,87.296,46.563,87.666L46.563,87.666z M46.563,87.666"/>
	<path fill="#FFFFFF" d="M50.021,87.079c0.064,0.364-0.311,0.74-0.847,0.84c-0.527,0.097-1.015-0.13-1.083-0.491
		c-0.065-0.375,0.317-0.75,0.843-0.848C49.472,86.487,49.953,86.707,50.021,87.079L50.021,87.079z M50.021,87.079"/>
</g>
</svg>
