<?xml version="1.0" encoding="UTF-8"?>
<svg width="1267px" height="628px" viewBox="0 0 1267 628" version="1.1" xmlns="http://www.w3.org/2000/svg" xmlns:xlink="http://www.w3.org/1999/xlink">
    <!-- Generator: Sketch 42 (36781) - http://www.bohemiancoding.com/sketch -->
    <title>lines</title>
    <desc>Created with Sketch.</desc>
    <defs></defs>
    <g id="elements" stroke="none" stroke-width="1" fill="none" fill-rule="evenodd" stroke-opacity="0.1">
        <g id="Artboard" transform="translate(-265.000000, -692.000000)" stroke="#FFFFFF">
            <g id="lines" transform="translate(-228.000000, 530.000000)">
                <path d="M954,111 L1139,804" id="Path-2"></path>
                <path d="M704,111 L889,804" id="Path-2-Copy"></path>
                <path d="M454,111 L639,804" id="Path-2-Copy-2"></path>
                <path d="M1205,111 L1390,804" id="Path-2-Copy-3"></path>
                <path d="M1455,111 L1640,804" id="Path-2-Copy-4"></path>
                <path d="M1705,111 L1890,804" id="Path-2-Copy-5"></path>
                <path d="M1024,111 L1709,800" id="Path-3"></path>
                <path d="M1366,111 L2051,800" id="Path-3-Copy-4"></path>
                <path d="M683,111 L1368,800" id="Path-3-Copy"></path>
                <path d="M341,111 L1026,800" id="Path-3-Copy-2"></path>
                <path d="M0,111 L685,800" id="Path-3-Copy-3"></path>
                <path d="M1795,755 L1617,802" id="Path-4"></path>
                <path d="M1794.44668,504 L342.869019,893.129464" id="Path-4-Copy"></path>
                <path d="M1794.44668,252 L342.869019,641.129464" id="Path-4-Copy-2"></path>
                <path d="M1794.44668,2.88436499e-16 L342.869019,389.129464" id="Path-4-Copy-3"></path>
                <path d="M871,110 L683,808" id="Path-5"></path>
                <path d="M619,110 L431,808" id="Path-5-Copy"></path>
                <path d="M1121,110 L933,808" id="Path-5-Copy-2"></path>
                <path d="M1372,110 L1184,808" id="Path-5-Copy-3"></path>
                <path d="M1622,110 L1434,808" id="Path-5-Copy-4"></path>
                <path d="M1134,110 L422,821" id="Path-6"></path>
                <path d="M788,110 L76,821" id="Path-6-Copy"></path>
                <path d="M1475,110 L763,821" id="Path-6-Copy-2"></path>
                <path d="M1819,110 L1107,821" id="Path-6-Copy-3"></path>
                <path d="M1787,465 L428,99" id="Path-7"></path>
                <path d="M1787,716 L428,350" id="Path-7-Copy"></path>
                <path d="M1787,966 L428,600" id="Path-7-Copy-2"></path>
            </g>
        </g>
    </g>
</svg>