<?xml version="1.0" encoding="utf-8"?>
<!-- Generator: Adobe Illustrator 16.0.0, SVG Export Plug-In . SVG Version: 6.00 Build 0)  -->
<!DOCTYPE svg PUBLIC "-//W3C//DTD SVG 1.1//EN" "http://www.w3.org/Graphics/SVG/1.1/DTD/svg11.dtd">
<svg version="1.1" xmlns="http://www.w3.org/2000/svg" xmlns:xlink="http://www.w3.org/1999/xlink" x="0px" y="0px"
	 width="183.48px" height="187.5px" viewBox="0 0 183.48 187.5" enable-background="new 0 0 183.48 187.5" xml:space="preserve">
<g id="Ebene_2" display="none">
	
		<rect x="-340.76" y="-111.75" display="inline" fill="#ED163A" stroke="#FFFFFF" stroke-miterlimit="10" width="730" height="382"/>
</g>
<g id="svg2" xmlns:dc="http://purl.org/dc/elements/1.1/" xmlns:cc="http://creativecommons.org/ns#" xmlns:rdf="http://www.w3.org/1999/02/22-rdf-syntax-ns#" xmlns:svg="http://www.w3.org/2000/svg" xmlns:inkscape="http://www.inkscape.org/namespaces/inkscape" opacity="0.5">
	<g id="g12" transform="scale(0.1)">
		<g>
			<path fill="#FFFFFF" stroke="#FFFFFF" stroke-miterlimit="10" d="M920.002,229.946c-397.72,0-719.99,322.344-719.99,719.985
				c0,397.685,322.271,720.029,719.99,720.029c397.686,0,719.99-322.344,719.99-720.029
				C1639.993,552.29,1317.688,229.946,920.002,229.946z M374.28,1138.965v-120.059h102.988l0.015-32.734H374.7
				c4.077-138.325,59.59-263.667,148.11-357.646l76.66,76.641l23.184-23.135l-76.675-76.665
				c93.989-88.511,219.302-144.043,357.642-148.091v102.573h32.71l0.039-102.573c138.32,4.048,263.652,59.541,357.637,148.091
				l-76.641,76.665l23.135,23.179l76.66-76.685c88.555,93.979,144.053,219.321,148.125,357.646h-102.598v32.754h103.018v120.039
				H374.28z"/>
			<path fill="#FFFFFF" stroke="#FFFFFF" stroke-miterlimit="10" d="M920.002,647.861c-195.923,0-354.756,158.765-354.756,354.697
				h709.424C1274.67,806.626,1115.891,647.861,920.002,647.861z"/>
		</g>
	</g>
</g>
</svg>
